# xmcd
#
# Track frame offsets: 
#        150
#        2913
#        24228
#        49372
#        56503
#        97250
#        116746
#        140385
#
# Disc length: 3143 seconds
#
# Revision: 2
# Processed by: cddbd v1.5.1PL2 Copyright (c) Steve Scherf et al.
# Submitted via: ExactAudioCopy v0.90b4
#
DISCID=6b0c4508
DTITLE=Mägo de Oz - Gaia II: La Voz Dormida [CD2]
DYEAR=2005
DGENRE=Metal
TTITLE0=Incubos y Súcubos
TTITLE1=Diabulus in Musica
TTITLE2=Mañana Empieza Hoy
TTITLE3=El Príncipe de la Dulce Pena
TTITLE4=Aquelarre
TTITLE5=Hoy Toca ser Feliz
TTITLE6=Creo (La Voz Dormida -  Parte II)
TTITLE7=La Cantata del Diablo (Missit me Dominus)
EXTD=
EXTT0=
EXTT1=
EXTT2=
EXTT3=
EXTT4=
EXTT5=
EXTT6=
EXTT7=
PLAYORDER=
